OFF
20 19 0
0.965926 -1.98637 -0.258819
1.33916 -2 0.454584
1.41119 -1.98543 -0.092494
1.99572 -2 -0.130806
1.50996e-07 -2 -1
0.965926 -2 -0.258819
0 2 0
0 -1.9648 0
0.932456 -1.98029 -1.06326
1.41119 -2 -0.092494
1.26837 -2 -0.625491
0 -2 0
0.932456 -2 -1.06326
0.965926 -1.97099 -0.258819
0 -1.96902 0
0.965926 -1.97318 -0.258819
0.965926 -1.97302 -0.258819
0 -1.9824 0
1.31869 -2 -1.50368
0.5 -2 0.866025
2 11 17 0.0 0.067733 MINIMA SADDLE
2 4 7 0.0 0.135481 MINIMA SADDLE
2 14 7 0.119238 0.135481 SADDLE SADDLE
2 2 15 0.0560679 0.10322 SADDLE SADDLE
2 5 0 0.0 0.0524587 MINIMA SADDLE
2 3 2 3.57628e-07 0.0560679 MINIMA SADDLE
2 17 14 0.067733 0.119238 SADDLE SADDLE
2 10 16 1.19209e-07 0.103842 MINIMA SADDLE
2 12 8 4.76837e-07 0.0758552 MINIMA SADDLE
2 9 2 0.0 0.0560679 MINIMA SADDLE
2 13 14 0.11165 0.119238 SADDLE SADDLE
2 0 15 0.0524587 0.10322 SADDLE SADDLE
2 16 13 0.103842 0.11165 SADDLE SADDLE
2 19 17 2.38419e-07 0.067733 MINIMA SADDLE
2 8 13 0.0758552 0.11165 SADDLE SADDLE
2 1 0 0.0 0.0524587 MINIMA SADDLE
2 18 8 7.15256e-07 0.0758552 MINIMA SADDLE
2 7 6 0.135481 15.397 SADDLE MAXIMA
2 15 16 0.10322 0.103842 SADDLE SADDLE
